<?xml version="1.0" standalone="no"?>
<!DOCTYPE svg PUBLIC "-//W3C//DTD SVG 20010904//EN"
 "http://www.w3.org/TR/2001/REC-SVG-20010904/DTD/svg10.dtd">
<svg version="1.0" xmlns="http://www.w3.org/2000/svg"
 width="800.715156pt" height="1006.799003pt" viewBox="0 0 800.715156 1006.799003"
 preserveAspectRatio="xMidYMid meet">
<metadata>
Created by potrace 1.12, written by Peter Selinger 2001-2015
</metadata>
<g transform="translate(0.357578,1006.903017) scale(0.100000,-0.100000)"
fill="#000000" stroke="none">
<path d="M3890 10067 c0 -2 9 -23 21 -47 24 -49 28 -137 10 -184 l-12 -30 -30
38 c-17 20 -48 46 -70 56 l-39 20 0 -73 c0 -91 -20 -161 -62 -217 -74 -96 -81
-120 -56 -190 9 -28 8 -35 -5 -45 -22 -15 -37 -58 -30 -83 4 -16 -4 -24 -41
-40 -53 -24 -126 -95 -150 -147 -10 -20 -23 -35 -29 -33 -7 2 -32 45 -56 96
l-45 92 -329 0 c-302 0 -329 -1 -323 -16 4 -10 54 -133 113 -275 l107 -259 70
0 c81 0 135 -13 167 -39 l23 -18 -32 -17 c-45 -23 -72 -71 -72 -127 0 -62 32
-108 91 -132 39 -16 51 -17 89 -7 93 25 161 135 144 234 -22 136 -129 231
-281 252 l-48 6 -47 117 c-26 64 -50 124 -54 134 -6 16 4 17 123 17 l130 0 42
-89 c24 -53 49 -92 59 -95 12 -4 25 -27 36 -65 53 -178 221 -345 394 -390 l42
-12 0 -49 0 -49 -57 -27 c-31 -15 -76 -47 -100 -71 l-44 -43 -431 0 c-306 0
-442 -3 -471 -12 -52 -16 -139 -96 -166 -153 -12 -25 -24 -66 -28 -92 l-6 -45
-76 6 c-448 40 -753 292 -835 689 -9 42 -16 94 -16 117 0 22 -5 40 -11 40 -6
0 -41 -30 -78 -67 -85 -86 -131 -174 -138 -267 -3 -37 -10 -66 -15 -66 -5 0
-25 7 -46 16 -140 59 -388 57 -634 -7 -144 -37 -221 -12 -272 89 -16 31 -26
42 -30 32 -48 -137 -36 -282 30 -351 l26 -27 -37 -48 c-140 -184 -183 -450
-100 -632 60 -132 228 -241 373 -242 55 0 100 -29 192 -120 232 -232 350 -546
350 -926 0 -162 -22 -328 -61 -476 -9 -36 -12 -38 -50 -38 -119 0 -201 115
-185 262 12 120 88 201 210 223 l37 7 -28 30 c-15 16 -57 43 -93 61 -58 29
-74 32 -153 32 l-89 0 6 55 c13 111 100 232 214 297 30 17 49 33 44 37 -5 3
-41 10 -79 16 -135 19 -244 -15 -342 -106 l-56 -52 -29 51 c-41 74 -75 114
-131 152 -89 61 -198 77 -304 43 l-35 -11 36 -18 c84 -43 141 -149 178 -329
22 -107 28 -245 21 -500 -3 -112 0 -150 17 -222 42 -171 118 -313 224 -414
141 -136 308 -174 498 -115 35 11 66 18 68 16 8 -8 -21 -123 -49 -193 -110
-278 -357 -453 -708 -502 -41 -6 -76 -12 -78 -14 -8 -8 19 -100 42 -145 41
-83 112 -132 208 -146 26 -4 47 -9 47 -11 0 -2 -15 -27 -34 -56 -132 -208
-206 -467 -178 -631 21 -127 81 -222 183 -287 99 -64 239 -87 342 -56 26 8 47
13 47 11 0 -2 -5 -38 -11 -79 -12 -89 0 -196 32 -295 25 -73 86 -145 134 -156
17 -4 52 -18 79 -31 80 -39 86 -36 86 45 0 140 67 309 226 573 162 269 197
369 174 498 -25 138 -95 210 -204 210 -35 0 -48 6 -77 36 -56 59 -123 88 -202
89 -67 0 -68 0 -62 25 9 37 79 176 129 255 37 58 46 67 51 50 41 -131 129
-220 259 -265 86 -29 88 -28 63 28 -31 68 -29 233 7 452 67 416 70 442 70 610
0 149 -2 171 -23 225 -16 40 -40 76 -71 106 -42 41 -45 48 -33 64 22 31 72
170 94 260 41 175 41 449 -1 653 -64 316 -238 627 -495 884 l-77 78 11 44 c30
122 -11 276 -104 384 -37 43 -55 47 -55 11 0 -36 -51 -128 -83 -153 -46 -34
-85 -40 -126 -18 -50 27 -73 75 -68 139 14 196 323 334 572 255 78 -24 107
-41 88 -48 -43 -18 -104 -80 -130 -131 -24 -50 -28 -69 -27 -138 1 -44 7 -93
13 -109 l11 -29 28 36 c56 72 162 126 300 153 113 22 180 18 284 -16 140 -44
251 -68 373 -80 151 -14 3659 -14 3810 0 122 12 233 36 373 80 105 34 171 38
286 16 135 -26 256 -89 302 -158 10 -15 21 -25 25 -22 4 2 13 35 19 72 23 124
-24 245 -115 300 -24 15 -45 30 -45 34 0 11 104 46 175 59 125 21 283 -19 390
-100 122 -92 140 -256 34 -313 -41 -22 -80 -16 -126 18 -32 25 -83 117 -83
153 0 36 -18 32 -55 -11 -93 -108 -134 -262 -104 -383 l11 -45 -77 -77 c-257
-259 -431 -569 -495 -883 -42 -208 -43 -478 -1 -655 22 -90 72 -229 94 -260
12 -16 9 -23 -33 -64 -31 -30 -55 -66 -71 -106 -21 -54 -23 -76 -23 -225 0
-168 2 -193 70 -610 36 -220 38 -385 7 -453 -25 -55 -23 -56 63 -27 130 45
218 134 259 265 5 17 14 8 51 -50 50 -79 120 -218 129 -255 6 -25 5 -25 -62
-25 -79 -1 -146 -30 -202 -89 -29 -30 -42 -36 -77 -36 -109 0 -179 -72 -204
-207 -23 -131 12 -232 169 -491 164 -272 220 -408 228 -560 7 -106 8 -107 89
-68 27 13 62 27 79 31 48 11 109 83 134 156 32 99 44 206 32 295 -6 41 -11 77
-11 79 0 2 21 -3 47 -11 61 -19 157 -18 224 2 166 49 273 170 301 341 28 164
-46 423 -178 631 -19 29 -34 54 -34 56 0 2 20 7 45 11 97 14 169 64 210 146
23 45 50 137 42 145 -2 2 -37 8 -78 14 -351 49 -598 224 -708 502 -28 70 -57
185 -49 193 2 2 33 -5 68 -16 190 -59 357 -21 498 115 106 101 182 243 224
414 17 72 20 110 17 222 -7 255 -1 393 21 500 37 180 94 286 178 329 l36 18
-35 11 c-106 34 -215 18 -305 -43 -54 -38 -82 -70 -130 -152 l-30 -53 -44 45
c-90 92 -218 134 -353 115 -38 -6 -74 -13 -79 -16 -5 -4 14 -20 44 -37 114
-65 201 -186 214 -297 l6 -55 -89 0 c-79 0 -95 -3 -153 -32 -36 -18 -78 -45
-93 -61 l-28 -30 37 -7 c122 -22 198 -103 210 -223 16 -147 -66 -262 -185
-262 -38 0 -41 2 -50 38 -79 297 -81 635 -5 900 29 104 97 249 161 345 56 84
206 236 255 260 20 9 51 17 70 17 145 1 313 110 373 242 83 182 40 448 -100
632 l-37 48 26 27 c57 59 75 173 47 291 -19 77 -21 79 -47 27 -51 -100 -128
-125 -272 -88 -246 64 -495 66 -637 7 -20 -9 -41 -16 -45 -16 -4 0 -10 29 -13
66 -7 97 -52 181 -146 274 l-76 75 -7 -78 c-30 -325 -223 -588 -522 -707 -124
-50 -231 -69 -445 -80 -106 -5 -197 -7 -202 -4 -25 15 6 171 42 210 24 26 24
56 1 77 -17 15 -65 17 -489 17 l-471 0 -26 35 c-29 37 -119 95 -149 95 -16 0
-18 8 -15 56 l3 55 57 23 c154 63 282 201 344 370 14 41 28 62 40 65 24 4 54
30 54 47 0 8 14 43 32 79 l32 65 129 0 c119 0 129 -1 123 -17 -4 -10 -28 -71
-54 -135 -43 -109 -49 -118 -73 -118 -15 0 -57 -9 -95 -21 -56 -17 -77 -31
-124 -77 -62 -63 -86 -120 -83 -203 4 -147 157 -243 266 -167 82 58 74 198
-15 244 l-32 17 23 18 c32 27 86 39 167 39 l71 0 106 258 c58 141 109 265 113
275 6 16 -14 17 -323 17 l-330 0 -43 -95 c-38 -85 -46 -95 -69 -95 -21 0 -31
9 -50 45 -29 54 -86 108 -145 137 -39 19 -44 25 -43 54 1 19 -7 42 -17 52 -16
19 -16 21 8 56 30 44 40 100 31 166 -6 46 -25 81 -25 47 0 -8 -6 -19 -13 -25
-10 -9 -16 -4 -26 23 -14 41 -82 101 -121 110 -28 6 -28 8 -23 59 10 93 -33
170 -121 220 -37 21 -96 42 -96 33z m141 -94 c64 -58 76 -160 29 -241 -25 -42
-20 -53 8 -18 11 15 27 26 36 26 50 0 131 -77 142 -135 6 -33 8 -35 23 -20 29
25 34 18 28 -46 -3 -40 -13 -72 -29 -95 l-23 -34 -280 2 -280 3 -14 41 c-18
52 -10 85 34 133 48 52 75 119 89 214 l11 80 32 -27 c39 -32 53 -77 41 -128
-4 -22 -4 -48 2 -63 13 -35 20 -31 13 8 -4 24 3 53 25 103 45 105 49 163 16
248 -7 17 -5 17 25 1 18 -9 50 -32 72 -52z m223 -599 c21 -20 20 -63 -1 -86
-15 -17 -38 -18 -296 -18 -247 0 -283 2 -299 17 -22 20 -23 61 -1 85 15 17 38
18 299 18 244 0 285 -2 298 -16z m-599 -114 c9 -14 570 -13 597 1 31 17 87 -4
141 -51 41 -36 87 -96 87 -114 0 -3 -234 -6 -520 -6 -286 0 -520 2 -520 5 0
19 35 67 75 104 62 57 125 85 140 61z m-339 -74 c19 -41 34 -79 34 -85 0 -6
-19 -11 -44 -11 -28 0 -48 -6 -57 -16 -11 -14 -16 -9 -41 40 l-28 56 -150 0
c-83 0 -150 -2 -150 -5 0 -8 110 -279 118 -291 4 -5 38 -16 76 -23 89 -16 134
-39 185 -97 118 -134 58 -344 -99 -344 -130 0 -167 170 -50 230 46 24 48 29
18 57 -40 36 -71 46 -162 52 l-90 6 -103 249 c-57 137 -103 250 -103 252 0 2
138 4 306 4 l305 0 35 -74z m1954 72 c0 -2 -47 -115 -104 -253 l-103 -250 -84
-6 c-46 -3 -97 -11 -114 -18 -30 -12 -75 -49 -75 -60 0 -4 16 -15 36 -26 51
-27 74 -61 74 -107 0 -122 -123 -173 -220 -91 -44 37 -62 78 -62 142 0 139 93
234 258 265 l66 12 59 143 c32 80 59 148 59 153 0 4 -68 8 -151 8 l-150 0 -25
-56 c-23 -53 -26 -55 -43 -40 -11 10 -35 16 -64 16 -26 0 -47 2 -47 5 0 3 18
41 40 85 l40 80 305 0 c168 0 305 -1 305 -2z m-592 -200 c15 -15 15 -51 0 -66
-9 -9 -179 -12 -704 -12 -616 0 -694 2 -708 16 -19 18 -21 45 -4 62 17 17
1399 17 1416 0z m-1246 -137 c18 -22 41 -61 52 -88 41 -105 126 -209 230 -279
58 -39 45 -43 -39 -14 -178 61 -296 192 -359 398 -7 21 -4 22 38 22 39 0 48
-4 78 -39z m61 9 l-15 -31 -19 25 c-26 33 -24 36 15 36 l34 0 -15 -30z m92 14
c42 -20 63 -50 81 -120 28 -109 85 -199 167 -264 l50 -40 -40 0 c-122 0 -358
254 -340 366 5 31 31 74 45 74 2 0 19 -7 37 -16z m97 -14 c-16 -28 -18 -29
-30 -12 -7 9 -20 23 -29 30 -14 10 -10 12 30 12 l46 0 -17 -30z m166 -7 c19
-21 22 -35 22 -108 0 -98 13 -169 46 -242 12 -29 18 -53 13 -53 -20 0 -97 60
-138 107 -48 54 -97 151 -107 210 -7 44 13 94 43 112 29 16 95 2 121 -26z m72
34 c0 -2 -8 -11 -18 -21 -18 -15 -20 -15 -37 4 -18 20 -18 20 18 20 21 0 37
-2 37 -3z m129 -20 c42 -46 37 -203 -12 -345 -20 -58 -26 -67 -49 -70 -23 -3
-29 4 -51 50 -44 94 -62 248 -36 315 27 73 102 98 148 50z m221 -2 c-13 -14
-24 -24 -24 -22 -1 1 -10 12 -20 25 l-19 22 43 0 43 0 -23 -25z m178 -4 c-18
-16 -33 -29 -34 -28 0 1 -8 14 -17 30 l-17 27 50 0 50 0 -32 -29z m158 2 c-16
-72 -92 -199 -156 -264 -72 -72 -208 -149 -262 -149 -29 0 -28 2 28 43 111 82
194 201 194 278 0 49 100 117 174 119 26 0 28 -2 22 -27z m-396 -10 c33 -42
24 -112 -28 -215 -38 -76 -122 -188 -142 -188 -4 0 1 24 12 53 29 75 48 187
48 276 0 86 8 101 56 101 24 0 39 -8 54 -27z m149 17 c12 0 31 -48 31 -80 0
-55 -41 -142 -94 -199 -67 -71 -162 -141 -192 -141 -23 0 -22 4 27 68 61 79
109 175 116 235 10 72 56 135 91 122 8 -3 17 -5 21 -5z m-2865 -277 c54 -277
220 -500 461 -621 115 -57 334 -112 451 -112 38 0 43 -4 69 -43 15 -24 41 -52
59 -63 l31 -19 -155 -3 c-278 -5 -509 25 -675 90 -87 33 -267 33 -375 -1 -93
-29 -159 -62 -206 -103 l-37 -32 5 86 c4 73 9 93 31 127 36 54 96 97 166 118
31 9 60 20 64 23 4 4 -1 22 -12 41 -11 19 -29 67 -41 107 -31 102 -26 242 11
322 26 54 113 170 128 170 4 0 16 -39 25 -87z m5108 9 c63 -82 81 -135 86
-244 4 -79 0 -110 -18 -170 -12 -40 -30 -88 -41 -107 -11 -19 -16 -37 -12 -41
4 -3 33 -14 64 -23 70 -21 130 -64 166 -118 22 -34 27 -54 31 -127 l5 -86 -37
32 c-47 41 -113 74 -206 104 -62 19 -96 23 -200 23 -107 -1 -133 -4 -180 -24
-146 -61 -361 -91 -657 -91 -134 0 -174 3 -180 13 -4 8 -21 20 -37 28 -17 8
-38 28 -48 45 l-19 32 158 7 c257 11 424 45 568 117 240 121 407 344 461 621
16 84 17 85 38 72 12 -8 38 -36 58 -63z m-2421 -204 c0 -18 2 -41 4 -50 3 -17
-12 -18 -211 -18 l-214 0 0 50 0 50 210 0 210 0 1 -32z m-3776 -88 c44 -17
100 -14 193 9 256 66 478 66 629 1 l49 -21 12 -67 c7 -37 24 -90 37 -119 l23
-52 -25 -8 c-19 -7 -39 -2 -81 19 -196 97 -450 62 -608 -84 -102 -94 -114
-246 -26 -320 66 -55 145 -45 210 26 22 24 46 62 53 85 7 23 15 41 18 41 9 0
66 -95 88 -145 12 -28 17 -68 17 -130 1 -82 -2 -96 -32 -157 -62 -127 -169
-188 -331 -188 -214 0 -383 120 -421 299 -20 97 -9 260 25 350 28 73 106 204
138 230 20 16 22 31 4 31 -19 0 -54 39 -72 82 -15 37 -21 152 -9 183 6 14 13
11 43 -19 20 -19 50 -40 66 -46z m7305 -13 c0 -39 -7 -83 -15 -105 -18 -43
-53 -82 -72 -82 -18 0 -16 -15 4 -31 32 -26 110 -157 138 -230 37 -98 47 -273
20 -365 -51 -177 -207 -284 -415 -284 -171 0 -274 61 -339 200 -22 47 -26 68
-25 145 0 62 5 102 17 130 22 50 79 145 88 145 3 0 11 -18 18 -41 7 -23 31
-61 53 -85 65 -71 144 -81 210 -26 61 51 77 153 37 237 -56 119 -258 225 -429
225 -68 0 -178 -27 -242 -58 -42 -21 -62 -26 -81 -19 l-25 8 23 52 c13 29 30
82 37 119 l12 67 49 21 c151 65 373 65 628 0 137 -35 199 -27 259 35 42 43 50
34 50 -58z m-3466 -3 c28 -10 65 -34 89 -58 l42 -41 -197 -3 c-108 -1 -288 -1
-400 0 l-203 3 35 33 c19 18 57 44 84 57 49 24 56 25 276 25 183 0 236 -3 274
-16z m1003 -209 c2 -1 -5 -20 -14 -43 l-16 -42 -866 -2 -866 -2 590 -7 c325
-3 714 -7 866 -8 l276 -1 -5 -25 -4 -25 -647 -2 -646 -1 470 -8 c259 -5 551
-10 649 -11 l179 -3 14 -47 c7 -26 18 -50 23 -53 6 -3 10 -10 10 -16 0 -5
-499 -9 -1313 -9 l-1313 0 -36 38 c-82 83 -83 156 -2 235 l46 45 1301 -5 c716
-3 1303 -7 1304 -8z m-4060 -910 c147 -182 261 -384 324 -575 29 -91 31 -100
26 -220 -5 -137 -26 -231 -76 -352 -31 -73 -108 -204 -116 -196 -3 2 1 33 7
69 17 97 14 367 -6 481 -39 231 -119 440 -244 633 -45 71 -147 200 -175 224
-14 11 -11 20 26 75 l42 63 63 -61 c35 -33 93 -97 129 -141z m5823 -10 c-224
-267 -349 -587 -375 -955 -5 -85 5 -269 21 -361 5 -31 1 -27 -40 36 -54 82
-99 186 -128 293 -15 58 -21 110 -22 212 -1 124 1 142 27 220 79 236 222 466
421 677 l87 92 43 -62 42 -62 -76 -90z m-6055 -6 c274 -319 412 -742 376
-1156 -18 -214 -25 -235 -87 -292 -49 -45 -140 -98 -151 -87 -3 2 3 38 12 78
63 278 59 612 -11 856 -34 119 -119 291 -191 387 -33 44 -94 112 -136 151
l-77 72 43 6 c23 4 62 17 87 30 25 13 52 24 60 24 8 0 42 -31 75 -69z m6216
46 c30 -13 73 -27 96 -31 l42 -6 -82 -78 c-177 -167 -291 -378 -349 -640 -19
-91 -22 -134 -22 -325 -1 -186 3 -238 22 -337 12 -64 26 -128 32 -142 6 -17 6
-26 0 -26 -26 0 -107 48 -155 92 -48 44 -54 54 -64 111 -76 422 12 846 246
1194 45 68 167 213 178 213 2 0 27 -11 56 -25z m-6888 -535 c27 -13 66 -44 88
-68 38 -40 109 -171 109 -199 0 -23 15 -14 29 19 21 47 98 120 156 148 39 18
72 24 145 28 l95 4 -40 -29 c-112 -83 -174 -189 -183 -315 l-5 -81 24 6 c95
26 191 14 269 -34 l34 -21 -49 -25 c-104 -52 -155 -126 -163 -234 -9 -127 55
-250 145 -280 51 -17 151 -6 215 23 112 51 237 199 323 381 43 90 84 231 86
292 0 26 2 27 9 10 15 -35 11 -325 -5 -421 -22 -125 -74 -270 -131 -365 -120
-199 -335 -349 -558 -390 -162 -30 -339 48 -450 199 -49 68 -110 194 -137 287
-23 76 -24 93 -21 320 4 400 -35 599 -145 733 l-36 44 74 -4 c53 -2 88 -11
122 -28z m7597 -7 c-67 -76 -118 -224 -139 -404 -6 -52 -10 -202 -9 -334 3
-260 1 -279 -59 -425 -113 -274 -321 -420 -544 -382 -223 38 -442 191 -563
391 -57 95 -109 240 -131 365 -16 96 -20 386 -5 421 7 17 9 16 9 -10 2 -61 43
-202 86 -292 86 -182 211 -330 323 -381 64 -29 164 -40 215 -23 53 18 113 88
133 157 44 153 -16 295 -149 354 -57 25 -53 36 26 71 56 24 141 31 211 16 l39
-8 -5 78 c-7 124 -70 233 -183 316 l-40 29 95 -4 c73 -4 107 -10 145 -28 57
-27 152 -119 161 -155 6 -26 24 -35 24 -12 0 7 15 45 34 84 69 145 161 211
295 212 l63 1 -32 -37z m-6371 -1221 c50 -53 72 -124 78 -257 6 -121 -5 -220
-63 -580 -41 -258 -52 -397 -35 -474 6 -30 10 -55 8 -57 -1 -2 -30 10 -62 27
-106 53 -164 127 -194 246 l-17 65 -59 -88 c-78 -118 -153 -264 -161 -314 -6
-33 -14 -44 -55 -70 -69 -45 -170 -156 -245 -270 -86 -131 -142 -165 -224
-136 -36 12 -40 12 -40 -3 1 -31 37 -97 69 -124 40 -33 89 -42 149 -27 98 24
165 81 260 223 29 42 62 86 74 97 26 24 71 26 93 3 32 -31 14 -91 -68 -235
-42 -73 -93 -178 -114 -232 -33 -87 -42 -101 -70 -112 -83 -35 -209 -26 -311
24 -62 30 -146 115 -172 176 -57 127 -42 318 40 516 31 75 105 210 145 265 39
52 39 52 -39 52 -62 1 -83 5 -127 29 -57 32 -102 90 -120 158 -13 47 -8 51 65
60 250 29 495 172 621 361 68 103 135 282 135 361 0 19 12 30 58 53 31 16 72
41 91 55 40 30 54 24 72 -31 26 -80 -6 -221 -90 -398 -62 -131 -122 -226 -268
-426 -220 -302 -290 -421 -313 -534 -14 -69 -10 -130 9 -130 11 0 16 16 18 65
7 137 62 242 306 573 188 257 280 418 343 602 37 109 40 248 7 293 l-21 29 54
58 c30 32 69 78 85 101 16 24 35 44 41 44 6 0 27 -17 47 -38z m5070 -6 c16
-23 55 -69 85 -101 l54 -58 -21 -29 c-19 -26 -22 -42 -21 -121 2 -189 109
-414 361 -759 162 -222 213 -299 255 -383 47 -94 58 -130 61 -206 1 -49 5 -64
17 -64 20 0 25 60 10 130 -23 113 -93 232 -313 534 -138 189 -197 281 -260
407 -85 170 -122 323 -98 410 16 61 31 69 72 38 19 -14 60 -39 92 -55 45 -23
57 -34 57 -53 0 -41 40 -179 70 -244 121 -259 350 -422 668 -476 46 -8 86 -16
88 -19 10 -9 -16 -82 -44 -127 -43 -68 -113 -102 -208 -103 -78 0 -77 1 -39
-52 40 -56 105 -174 140 -255 86 -202 103 -396 45 -526 -26 -61 -110 -146
-172 -176 -59 -28 -139 -48 -197 -48 -61 0 -141 28 -151 53 -5 12 -23 58 -40
102 -17 44 -65 140 -107 213 -82 144 -100 204 -68 235 22 23 67 21 93 -3 12
-11 45 -55 74 -97 95 -142 162 -199 260 -223 60 -15 109 -6 149 27 32 27 68
93 69 124 0 15 -4 15 -40 3 -82 -29 -138 5 -224 136 -75 114 -176 225 -245
270 -41 26 -49 37 -55 70 -8 50 -72 175 -156 304 l-64 99 -17 -66 c-21 -83
-57 -145 -111 -191 -37 -32 -139 -89 -146 -82 -1 2 3 27 9 57 17 77 6 216 -35
474 -58 360 -69 459 -63 580 6 133 28 204 78 257 20 21 41 38 47 38 6 0 25
-20 41 -44z m-5377 -1507 c92 -46 131 -108 131 -209 0 -111 -38 -211 -148
-389 -103 -169 -147 -286 -166 -446 -10 -88 -1 -231 17 -280 8 -20 -2 -19 -41
5 -68 42 -115 177 -115 330 0 168 45 306 173 528 57 101 71 134 75 177 4 47 1
57 -21 79 -31 31 -89 35 -125 10 -12 -8 -50 -56 -84 -106 -33 -50 -79 -110
-102 -133 -106 -105 -252 -119 -300 -27 l-14 27 48 0 c71 0 119 38 201 160
181 269 320 350 471 274z m5805 1 c68 -33 178 -147 256 -266 37 -56 80 -113
96 -127 39 -32 95 -51 132 -43 l29 6 -15 -30 c-46 -88 -173 -84 -286 10 -20
16 -69 77 -108 134 -39 58 -81 112 -93 121 -36 24 -95 19 -125 -11 -22 -22
-25 -32 -21 -79 4 -43 18 -76 75 -177 128 -222 173 -360 173 -528 0 -153 -47
-288 -115 -330 -39 -24 -49 -25 -41 -5 18 49 27 192 17 280 -19 165 -63 278
-180 469 -196 321 -180 523 49 597 39 13 103 4 157 -21z m-5546 -123 c73 -49
110 -178 85 -298 -17 -80 -50 -148 -169 -344 -151 -250 -214 -402 -233 -557
-3 -32 -10 -58 -14 -58 -4 0 -19 9 -33 20 -38 30 -51 107 -44 265 8 191 44
297 176 510 117 190 165 378 119 468 -14 28 69 24 113 -6z m5191 6 c-46 -90 2
-278 119 -468 140 -226 174 -333 174 -550 0 -167 -10 -215 -51 -234 -14 -6
-26 -11 -28 -11 -2 0 -7 26 -10 58 -19 156 -82 308 -234 559 -115 189 -159
281 -171 361 -26 163 50 302 166 302 38 0 43 -2 35 -17z"/>
<path d="M1182 7658 c9 -13 142 -198 297 -411 l281 -388 0 -2033 0 -2034 263
-147 c1330 -750 1898 -1070 1933 -1090 l40 -24 85 48 c80 45 1181 665 1839
1037 l305 172 5 2036 5 2036 293 404 c160 222 292 407 292 410 0 3 -1272 6
-2826 6 l-2826 0 14 -22z m5311 -160 c-6 -7 -103 -142 -216 -299 l-207 -287 0
-331 0 -331 -45 -102 c-179 -404 -475 -794 -873 -1151 -346 -310 -756 -588
-1123 -762 -254 -121 -587 -292 -739 -381 -430 -251 -848 -553 -1192 -861 -92
-82 -142 -121 -153 -117 -13 5 -15 52 -15 375 l0 368 133 122 c302 278 554
438 1243 788 610 309 827 434 1094 632 574 423 919 884 1094 1463 71 233 106
475 106 732 l0 154 451 0 c360 0 449 -3 442 -12z m-2928 -302 c50 -21 99 -23
128 -3 53 35 80 19 121 -73 28 -64 59 -96 101 -105 29 -7 29 -7 10 8 -11 8
-18 18 -15 21 11 10 183 -13 245 -34 35 -12 90 -38 122 -59 45 -29 62 -35 75
-28 26 17 70 -17 66 -50 -2 -15 -8 -28 -14 -30 -7 -2 -9 8 -6 27 2 17 0 30 -6
30 -11 0 -29 -53 -34 -99 -2 -14 -9 -26 -15 -29 -9 -2 -13 11 -14 45 -1 26 -3
40 -6 31 -2 -10 -6 -18 -9 -18 -2 0 -22 20 -45 45 -23 25 -46 45 -52 45 -5 0
9 -20 31 -44 64 -70 66 -115 6 -116 -22 0 -42 13 -145 93 -36 27 -71 47 -86
47 -22 0 -24 -2 -12 -16 7 -9 13 -24 14 -35 2 -18 -3 -19 -56 -13 -100 11
-121 2 -223 -93 -50 -48 -107 -108 -128 -135 -39 -52 -48 -48 -48 20 0 53 15
72 28 36 9 -24 11 -11 11 69 1 106 7 125 54 175 22 23 37 30 51 26 18 -6 19
-3 13 54 -6 56 -5 61 14 67 14 5 25 2 30 -6 5 -9 9 8 9 44 l0 58 -38 -41 c-48
-50 -80 -52 -145 -9 -40 26 -87 82 -87 103 0 10 18 7 55 -8z m-41 -57 c21 -36
91 -89 118 -89 24 0 23 -8 -4 -30 -22 -17 -24 -17 -60 1 -42 21 -45 17 -28
-40 9 -32 7 -37 -30 -78 -22 -23 -47 -60 -56 -80 -9 -21 -20 -44 -23 -52 -4
-8 -26 -21 -49 -30 -23 -8 -42 -18 -42 -21 0 -3 20 -17 43 -31 l44 -27 6 -108
7 -108 -31 -32 -31 -32 45 -6 c50 -8 61 -22 44 -56 -24 -46 -59 -62 -136 -62
-39 1 -76 4 -81 7 -6 4 0 19 15 37 14 16 25 37 25 46 0 11 -8 5 -21 -16 -25
-38 -95 -82 -132 -82 -14 0 -29 -4 -32 -10 -3 -5 3 -10 13 -10 18 0 19 -2 6
-37 -15 -42 -17 -127 -5 -158 5 -12 3 -33 -5 -54 -12 -30 -12 -32 1 -21 13 11
15 8 16 -21 l1 -34 15 38 16 37 68 0 c37 0 71 -4 74 -10 4 -6 -6 -10 -22 -11
-22 0 -18 -3 19 -13 81 -22 123 -61 108 -101 -7 -19 -7 -19 -18 2 -6 11 -30
28 -52 37 -56 22 -73 19 -28 -5 21 -10 42 -28 48 -38 15 -28 12 -67 -5 -81
-20 -16 -90 -16 -109 0 -9 7 -27 9 -43 6 -41 -9 -167 11 -223 35 -47 20 -115
79 -92 79 7 0 0 21 -17 53 -47 84 -93 260 -108 412 -4 45 -1 56 29 100 29 43
95 106 208 198 26 21 28 25 8 13 -16 -9 -28 -14 -28 -11 0 13 41 85 65 114 15
17 22 31 17 31 -14 0 -93 -88 -129 -145 -18 -27 -65 -80 -106 -117 -92 -83
-112 -121 -103 -199 l6 -58 -42 -35 c-65 -56 -136 -79 -249 -80 -54 -1 -92 -4
-85 -8 6 -4 21 -8 34 -8 l23 0 -22 -29 c-15 -21 -20 -39 -17 -61 4 -27 1 -34
-21 -43 -23 -11 -18 -13 49 -18 41 -3 89 -11 105 -17 17 -6 42 -14 57 -17 39
-8 64 -48 50 -80 -14 -30 -32 -33 -32 -4 0 11 -13 34 -29 50 -23 23 -38 29
-68 28 l-38 -1 33 -8 c44 -10 72 -37 72 -70 0 -45 -53 -77 -104 -64 -20 5 -26
12 -26 34 0 16 -3 36 -6 45 -7 17 -74 55 -96 55 -7 -1 1 -8 17 -17 67 -35 87
-81 44 -104 -24 -12 -95 -5 -116 13 -8 6 -37 15 -66 19 -55 9 -77 28 -77 65 0
27 46 84 68 85 11 0 12 2 4 6 -7 2 -28 -4 -46 -15 l-34 -20 5 36 c8 46 33 107
69 163 17 27 23 44 15 47 -20 7 -11 48 17 74 44 40 136 92 140 79 2 -7 21 21
41 62 74 146 147 210 321 277 58 23 138 59 178 81 59 32 71 36 63 20 -26 -48
-7 -29 35 34 92 143 220 245 369 297 105 36 126 36 149 -3z m418 -25 c25 -8
52 -22 60 -31 12 -14 9 -15 -22 -10 -19 3 -56 9 -82 12 -38 6 -47 11 -51 31
-5 27 3 26 95 -2z m286 -24 c29 -27 48 -52 42 -55 -6 -4 -40 7 -77 24 -66 31
-87 35 -58 11 26 -22 17 -33 -22 -25 -21 3 -42 10 -46 14 -10 10 71 81 92 81
9 -1 40 -23 69 -50z m-617 -105 c25 -13 28 -19 19 -35 -22 -40 -59 -16 -60 38
0 16 5 15 41 -3z m524 -195 c-7 -22 19 -44 45 -37 11 3 23 1 26 -4 3 -5 -10
-9 -29 -9 -51 0 -117 51 -117 90 l0 30 40 -26 c29 -19 39 -32 35 -44z m-77
-37 c29 -20 57 -43 63 -52 8 -13 9 -13 5 4 -5 18 -2 20 40 16 26 -2 75 5 110
14 78 21 99 16 173 -40 65 -50 93 -98 70 -119 -22 -21 -65 -28 -78 -12 -10 12
-16 12 -43 -1 -65 -33 -232 20 -325 103 -24 22 -31 31 -18 27 18 -6 18 -4 -4
20 -49 54 -141 43 -168 -20 -18 -45 -12 -51 20 -19 15 14 35 26 46 26 19 0 19
-1 -4 -58 -44 -108 -50 -167 -34 -304 21 -180 19 -212 -12 -244 -16 -16 -42
-28 -67 -31 -53 -7 -95 19 -150 90 -98 127 -128 272 -79 380 37 81 144 183
117 111 -6 -14 -10 -46 -10 -72 l1 -47 33 87 c25 67 79 167 90 168 0 0 18 6
39 14 54 18 120 4 185 -41z m-1508 20 c14 -9 39 -29 57 -44 l32 -28 -45 -25
-44 -25 -15 23 c-9 13 -12 31 -9 41 7 17 6 17 -19 0 -33 -21 -87 -23 -121 -5
-41 21 -33 40 17 40 31 0 49 6 62 20 22 24 52 26 85 3z m1928 -39 c23 -16 29
-34 13 -34 -6 0 -23 11 -38 25 -32 28 -12 35 25 9z m-1008 -24 c0 -34 -10 -37
-51 -13 l-29 17 23 13 c39 22 57 16 57 -17z m768 -166 c27 -8 27 -12 1 -43
-23 -28 -24 -27 -34 17 -7 33 -4 36 33 26z m-238 -207 c22 -51 40 -97 40 -104
0 -6 11 -20 25 -31 21 -17 25 -28 25 -71 0 -28 -4 -51 -9 -51 -21 0 -72 54
-95 103 -14 29 -25 45 -26 37 0 -32 22 -91 45 -119 14 -16 25 -32 25 -36 0 -8
-87 -1 -96 7 -2 3 0 17 6 32 14 38 13 82 -6 226 -14 106 -15 132 -4 170 l14
45 8 -58 c4 -32 26 -100 48 -150z m428 143 c-3 -40 -3 -41 22 -35 25 6 64 42
72 66 3 9 20 2 54 -21 61 -41 74 -57 74 -91 0 -14 15 -52 34 -83 19 -31 49
-102 66 -156 38 -118 43 -204 15 -246 -16 -25 -16 -29 -1 -55 20 -34 13 -55
-25 -68 -65 -23 -115 11 -107 70 4 27 4 28 -14 12 -10 -9 -18 -24 -18 -35 0
-25 -16 -23 -25 5 -6 21 -7 20 -16 -9 -15 -51 -92 -69 -136 -32 -18 15 -16 63
3 82 14 15 14 16 -1 16 -9 0 -24 -13 -33 -30 -20 -35 -37 -38 -53 -8 -10 19
-8 25 15 45 15 13 37 23 49 23 18 0 19 2 7 10 -13 9 -13 11 0 20 27 17 122 32
164 26 28 -4 36 -3 26 3 -8 6 -38 13 -66 17 -48 5 -52 9 -58 36 -3 16 -20 43
-37 60 -26 26 -28 33 -15 40 37 20 47 141 16 181 -11 14 -20 35 -20 47 0 11
-4 19 -10 15 -13 -8 -40 48 -40 84 0 34 38 77 53 62 5 -5 7 -28 5 -51z m-279
-14 c99 -73 161 -205 161 -344 0 -105 -31 -152 -99 -152 -58 0 -91 61 -91 168
0 40 6 62 25 90 30 44 33 76 8 68 -72 -21 -73 -21 -73 18 0 26 -8 44 -31 68
-23 26 -28 28 -19 10 6 -13 9 -26 7 -29 -10 -9 -47 76 -47 107 l0 30 39 -19
c21 -11 55 -39 74 -62 28 -32 34 -36 30 -18 -4 13 -30 47 -60 76 l-53 52 41
-14 c23 -8 62 -30 88 -49z m174 27 c-34 -45 -39 -114 -9 -153 14 -19 16 -20
11 -5 -15 38 -17 80 -5 110 l12 30 14 -47 c8 -26 19 -50 24 -53 26 -16 -16
-95 -49 -95 -16 0 -61 96 -61 130 0 53 40 120 72 120 17 0 16 -3 -9 -37z m177
24 c0 -2 -9 -12 -20 -22 -19 -18 -20 -17 -20 3 0 15 6 22 20 22 11 0 20 -2 20
-3z m-992 -100 c3 -26 1 -28 -32 -25 -41 2 -42 5 -20 36 21 30 48 24 52 -11z
m878 -152 c-11 -17 -26 -25 -44 -25 -27 0 -27 0 13 34 42 36 58 32 31 -9z
m-806 -76 c0 -30 3 -36 18 -33 11 3 30 -10 55 -41 21 -25 56 -54 77 -65 40
-21 127 -27 158 -12 10 5 36 3 62 -5 40 -11 22 -12 -150 -9 -107 3 -211 9
-230 14 -19 6 -79 22 -133 36 -142 38 -271 88 -275 107 -1 9 5 25 15 36 17 19
23 20 111 10 110 -12 159 -1 194 42 l23 29 38 -36 c30 -29 37 -43 37 -73z
m860 69 c0 -5 -4 -8 -10 -8 -5 0 -10 10 -10 23 0 18 2 19 10 7 5 -8 10 -18 10
-22z m-300 4 c0 -5 -11 -19 -25 -32 -19 -18 -28 -21 -36 -13 -7 7 -9 18 -6 27
5 12 15 17 60 25 4 0 7 -3 7 -7z m278 -68 c-2 -19 -14 -36 -37 -51 -19 -13
-35 -22 -36 -21 -1 2 -5 22 -9 46 -5 36 -4 42 12 42 10 0 27 6 38 14 24 18 37
7 32 -30z m-1143 -97 l70 -24 -30 -17 c-30 -17 -23 -17 35 0 21 6 262 -41 292
-57 21 -12 38 -48 31 -66 -8 -21 -21 -15 -37 15 -16 31 -54 53 -89 51 -18 -1
-17 -2 7 -9 59 -18 83 -62 50 -94 -24 -24 -44 -20 -44 10 0 26 -48 84 -70 84
-6 0 1 -10 15 -23 18 -15 27 -33 28 -57 2 -30 -1 -35 -32 -44 -28 -8 -36 -7
-40 5 -7 23 -103 109 -138 125 -18 8 -46 14 -63 14 -31 0 -38 8 -19 27 7 7 4
9 -14 6 -25 -5 -37 14 -37 60 0 22 2 22 85 -6z"/>
<path d="M5615 6457 c-19 -61 -32 -114 -28 -118 11 -9 292 -93 297 -88 6 5 76
222 73 225 -1 1 -14 5 -28 9 -24 6 -26 3 -50 -77 -26 -88 -28 -89 -85 -68
l-23 9 24 76 23 76 -21 9 c-28 10 -30 8 -57 -73 -22 -68 -22 -68 -54 -61 -17
3 -32 7 -33 8 -1 1 9 37 22 80 13 44 22 82 20 86 -3 4 -14 10 -25 13 -18 5
-24 -7 -55 -106z"/>
<path d="M5557 6259 c-17 -10 -112 -187 -104 -195 2 -2 66 -33 142 -70 130
-61 140 -64 152 -48 21 29 16 39 -42 67 -30 15 -55 30 -55 35 0 27 31 44 103
55 69 11 79 15 92 41 8 15 15 31 15 34 0 8 -128 -6 -149 -17 -17 -10 -19 -7
-18 25 2 64 -78 107 -136 73z m83 -90 c0 -20 -36 -99 -46 -99 -9 0 -64 30 -64
36 0 15 42 84 57 93 23 13 53 -4 53 -30z"/>
<path d="M5349 5912 c-16 -28 -16 -28 80 -165 53 -74 99 -136 102 -136 4 -1
14 10 23 24 16 24 16 27 -4 54 -11 16 -20 32 -20 37 0 4 14 29 31 55 30 47 31
48 72 43 38 -5 43 -3 59 23 l17 29 -163 32 c-89 18 -166 32 -171 32 -6 0 -17
-13 -26 -28z m144 -58 c43 -7 42 -6 22 -44 -20 -38 -27 -38 -57 3 -40 53 -43
60 -22 54 11 -3 36 -9 57 -13z"/>
<path d="M5264 5785 c-16 -25 -16 -27 50 -125 36 -55 63 -100 59 -100 -5 0
-56 18 -115 39 l-107 38 -23 -24 c-13 -14 -18 -27 -12 -32 5 -5 78 -31 161
-59 l153 -50 20 28 21 29 -88 140 c-48 77 -91 141 -95 141 -4 0 -15 -11 -24
-25z"/>
<path d="M5060 5526 c-14 -8 -51 -43 -82 -79 l-58 -65 115 -108 116 -107 23
22 23 22 -50 48 -50 48 27 18 c24 16 34 17 98 6 l72 -12 29 29 29 29 -75 13
c-41 7 -79 10 -84 7 -6 -4 -8 13 -5 42 4 44 2 49 -28 74 -35 30 -62 33 -100
13z m68 -86 c2 -17 -8 -38 -30 -64 l-33 -38 -27 22 c-36 27 -35 37 4 77 40 42
81 43 86 3z"/>
<path d="M4850 5319 c-14 -12 -51 -46 -83 -76 l-58 -55 35 -42 c20 -22 68 -76
108 -119 l73 -77 90 83 c79 74 88 86 76 101 -7 9 -18 16 -23 16 -5 0 -35 -25
-67 -55 -32 -30 -62 -55 -67 -54 -5 0 -19 13 -32 29 l-23 30 58 54 58 54 -19
21 -20 22 -58 -58 -59 -58 -19 25 c-11 14 -20 28 -20 31 0 4 27 32 59 62 57
52 59 56 42 71 -22 20 -21 20 -51 -5z"/>
<path d="M4602 5103 c-47 -23 -92 -78 -92 -113 0 -16 10 -41 23 -55 29 -35 74
-36 149 -5 63 26 88 22 88 -13 0 -48 -76 -87 -108 -55 -9 9 -16 7 -32 -7 -17
-15 -28 -45 -16 -45 2 0 19 -6 37 -14 29 -12 40 -12 72 -1 48 17 85 50 104 93
12 30 12 37 -4 70 -10 21 -31 43 -48 51 -27 13 -35 12 -90 -8 -88 -34 -104
-36 -111 -17 -4 11 2 27 17 42 19 20 31 25 54 21 20 -3 38 1 53 13 28 23 28
26 -8 45 -36 19 -47 19 -88 -2z"/>
<path d="M4243 4842 c-101 -67 -101 -68 -85 -90 l17 -22 39 26 c22 15 41 22
45 16 3 -5 35 -55 71 -111 36 -55 67 -101 70 -101 3 0 16 9 29 19 l23 18 -72
108 -72 109 23 19 c12 10 29 22 38 27 12 7 14 13 5 26 -6 10 -15 19 -20 21 -5
2 -55 -28 -111 -65z"/>
<path d="M4011 4698 c-98 -57 -102 -61 -88 -81 7 -12 44 -75 81 -140 66 -113
69 -117 90 -104 11 8 58 35 104 61 45 26 82 51 82 54 0 4 -6 15 -14 24 -11 15
-19 13 -89 -27 l-76 -43 -21 33 c-11 18 -20 35 -20 38 0 3 29 22 65 42 66 37
77 53 51 74 -11 9 -27 4 -74 -24 -33 -19 -65 -35 -70 -35 -7 0 -32 42 -32 55
0 2 29 20 65 40 76 43 81 49 63 74 -13 19 -18 17 -117 -41z"/>
<path d="M3648 4507 l-108 -52 69 -142 c39 -79 72 -143 74 -143 13 0 217 102
217 108 0 5 -6 16 -13 26 -13 17 -17 16 -85 -18 -39 -20 -75 -36 -80 -36 -8 0
-46 71 -40 74 2 1 31 15 66 31 73 34 77 38 62 64 -10 19 -12 19 -84 -14 l-74
-34 -12 30 c-7 16 -11 31 -9 33 2 2 37 20 77 40 74 37 77 41 48 83 0 1 -49
-22 -108 -50z"/>
<path d="M3338 4354 c-49 -24 -88 -47 -88 -50 0 -4 33 -68 72 -144 l72 -138
28 14 28 15 -30 59 -30 60 26 12 c24 11 34 8 97 -26 l70 -38 33 18 32 18 -51
32 c-29 18 -64 35 -79 39 -27 7 -27 7 -7 28 29 32 25 83 -10 118 -16 16 -40
29 -53 28 -13 0 -62 -20 -110 -45z m127 -44 c4 -12 1 -28 -6 -36 -13 -16 -89
-58 -94 -52 -1 2 -10 17 -19 35 l-16 32 37 20 c51 27 90 27 98 1z"/>
<path d="M3073 4216 c-51 -28 -93 -54 -93 -57 0 -3 34 -68 76 -143 l76 -137
86 47 c136 74 133 71 112 104 -8 13 -22 8 -89 -28 l-80 -43 -20 38 -19 39 69
37 c38 21 69 41 69 45 0 4 -7 15 -14 25 -13 16 -18 15 -82 -22 l-69 -39 -17
31 -16 32 66 37 c37 21 71 39 76 41 13 4 -12 47 -27 46 -7 -1 -54 -24 -104
-53z"/>
<path d="M2830 4079 c-40 -16 -80 -60 -90 -99 -19 -72 38 -185 108 -211 60
-23 140 2 177 54 8 12 15 43 15 69 0 48 0 48 -27 42 -40 -10 -40 -10 -35 -43
6 -42 -28 -73 -76 -69 -29 2 -42 11 -70 47 -43 56 -42 112 1 145 24 18 31 19
59 8 29 -11 35 -10 52 8 19 18 19 21 5 36 -20 20 -86 27 -119 13z"/>
<path d="M2555 3901 c-51 -23 -95 -74 -95 -110 0 -16 11 -40 25 -55 29 -31 64
-34 141 -10 64 21 87 14 82 -23 -2 -18 -14 -33 -35 -46 -29 -16 -35 -17 -60
-4 -26 14 -30 13 -52 -4 -27 -22 -19 -39 30 -59 40 -17 97 0 144 41 56 50 57
116 1 161 -27 23 -50 22 -126 -1 -34 -11 -68 -17 -76 -14 -20 8 -17 30 7 54
17 17 29 20 58 15 26 -4 43 0 60 13 l25 19 -35 21 c-41 25 -43 25 -94 2z"/>
<path d="M2352 3764 c-12 -8 -22 -20 -22 -25 0 -11 172 -258 180 -258 3 0 15
8 28 19 l22 19 -86 123 c-48 68 -90 126 -93 130 -4 4 -17 1 -29 -8z"/>
<path d="M2203 3646 c-29 -13 -143 -94 -143 -102 0 -1 43 -60 96 -129 l96
-126 31 24 c18 13 47 34 65 48 71 51 82 127 30 205 -51 75 -117 105 -175 80z
m100 -95 c60 -66 61 -108 3 -153 l-34 -27 -61 80 c-33 44 -61 84 -61 90 0 15
62 49 91 49 18 0 38 -12 62 -39z"/>
<path d="M3942 6958 c-20 -20 -14 -46 18 -80 l31 -33 -18 38 c-12 28 -14 40
-5 49 20 20 98 -10 155 -60 29 -25 65 -57 81 -71 l30 -26 -32 41 c-40 52 -112
118 -150 138 -37 19 -93 21 -110 4z"/>
<path d="M4250 6715 l-45 -13 56 -1 c39 -1 61 -6 70 -17 8 -9 33 -25 56 -35
25 -11 43 -25 43 -34 0 -9 5 -13 10 -10 18 11 11 63 -12 85 -23 21 -79 41
-113 39 -11 -1 -40 -7 -65 -14z"/>
<path d="M4262 6658 c3 -7 13 -15 22 -16 12 -3 17 1 14 10 -3 7 -13 15 -22 16
-12 3 -17 -1 -14 -10z"/>
<path d="M4310 6610 c0 -5 9 -10 21 -10 11 0 17 5 14 10 -3 6 -13 10 -21 10
-8 0 -14 -4 -14 -10z"/>
<path d="M1187 2468 l-337 -302 0 -688 c1 -378 4 -688 8 -688 4 0 106 79 227
176 121 96 279 222 351 279 l132 105 578 -321 c319 -177 865 -480 1215 -675
l637 -353 248 138 c137 76 684 380 1216 675 l968 537 350 -281 c192 -154 352
-280 355 -280 3 0 5 312 4 693 l0 692 -333 294 c-183 162 -337 296 -342 298
-9 3 -85 -39 -1571 -876 -810 -455 -895 -501 -915 -490 -13 7 -563 316 -1223
687 -660 371 -1207 676 -1215 678 -8 2 -164 -129 -353 -298z m1588 -583 c670
-377 1225 -683 1233 -680 7 3 558 311 1224 686 l1210 681 31 -31 c17 -17 29
-32 26 -35 -2 -2 -110 -68 -239 -146 -129 -78 -246 -149 -259 -157 l-24 -16
26 -19 27 -20 0 -324 c0 -178 3 -324 7 -324 3 0 127 69 274 152 l268 153 5 60
c3 33 7 94 9 134 4 66 3 73 -9 55 -57 -80 -101 -127 -147 -158 -59 -39 -210
-116 -226 -116 -12 0 -15 78 -5 104 3 8 45 38 94 67 49 28 103 67 122 86 31
32 33 39 36 116 l4 82 -34 -31 c-18 -18 -75 -53 -126 -78 l-93 -47 3 52 3 51
180 94 c98 52 181 97 183 99 3 2 -3 23 -12 46 -9 23 -15 43 -14 45 2 1 98 -82
213 -184 l210 -188 2 -482 c1 -265 1 -482 -2 -482 -2 0 -121 94 -266 209
l-262 210 -36 -19 c-20 -10 -571 -316 -1226 -679 l-1189 -660 -31 18 c-16 10
-567 316 -1223 680 l-1192 661 -223 -178 c-122 -97 -241 -192 -264 -211 l-43
-33 0 484 0 483 268 237 c147 131 267 238 268 238 1 0 549 -308 1219 -685z"/>
<path d="M1517 2300 c-108 -27 -212 -113 -262 -215 -26 -51 -29 -70 -29 -144
0 -105 23 -184 67 -243 66 -86 134 -113 267 -105 87 5 189 37 237 75 l22 17
-50 67 -49 68 -43 -23 c-31 -16 -59 -22 -109 -22 -57 0 -70 4 -93 25 -78 72
-71 219 14 279 18 13 45 21 71 21 35 0 48 -6 76 -34 31 -31 33 -37 22 -55 -7
-11 -9 -23 -5 -27 11 -12 192 61 195 80 5 25 -45 127 -81 164 -63 66 -161 94
-250 72z"/>
<path d="M5590 1999 c-151 -87 -279 -160 -285 -163 -5 -2 5 -17 23 -32 l32
-29 3 -323 2 -323 280 160 280 159 3 126 c1 69 -1 126 -6 126 -5 0 -14 -12
-21 -27 -42 -92 -126 -165 -278 -242 l-83 -41 0 64 0 63 80 47 c141 81 177
126 180 221 3 80 2 83 -22 51 -14 -19 -61 -48 -133 -82 l-110 -53 -6 52 c-3
29 -4 56 -2 60 3 4 59 35 126 68 120 61 121 61 185 54 l65 -7 -6 54 c-4 29 -7
81 -7 116 0 43 -4 62 -12 61 -7 0 -137 -72 -288 -160z"/>
<path d="M1918 1850 c-1 -160 -2 -309 -3 -332 l0 -43 103 -53 102 -53 0 125 0
125 68 -25 c37 -13 78 -29 92 -35 l25 -9 -3 -129 -4 -128 100 -52 c55 -28 103
-51 106 -51 9 0 7 65 -2 75 -5 6 -5 124 0 264 8 214 12 256 25 266 9 7 14 18
11 25 -2 8 -51 40 -109 71 -122 68 -117 70 -118 -65 -1 -66 -4 -87 -13 -83 -7
2 -49 19 -93 36 l-80 30 3 115 3 115 -82 41 c-44 23 -92 45 -105 50 l-24 10
-2 -290z"/>
<path d="M2690 1429 c-84 -143 -151 -261 -149 -263 13 -10 242 -126 250 -126
5 0 9 15 9 34 0 69 1 69 138 -2 70 -36 129 -67 131 -68 2 -2 9 -32 15 -66 l11
-63 100 -52 c55 -29 103 -53 107 -53 4 0 10 15 13 33 5 26 0 43 -24 83 -25 39
-46 111 -106 361 -41 172 -75 315 -75 318 0 6 -70 39 -196 93 l-71 30 -153
-259z m273 -85 c10 -42 16 -79 13 -81 -2 -2 -27 7 -56 22 l-51 26 21 32 c12
18 26 42 32 55 6 12 14 22 17 22 4 0 14 -34 24 -76z"/>
<path d="M4863 1559 c-102 -64 -137 -99 -100 -99 8 0 21 -8 30 -18 15 -16 17
-53 17 -310 0 -259 -2 -292 -16 -300 -20 -11 -10 -32 14 -32 14 0 419 254 445
279 4 4 18 70 31 145 19 116 21 139 9 143 -8 3 -15 4 -17 2 -1 -2 -20 -30 -40
-62 -21 -31 -59 -76 -84 -98 -44 -39 -138 -99 -154 -99 -5 0 -8 117 -8 260 0
143 -3 260 -7 260 -5 -1 -59 -33 -120 -71z"/>
<path d="M3330 1376 c0 -45 4 -65 14 -69 19 -7 35 -495 16 -507 -6 -4 -10 -19
-8 -34 3 -23 16 -33 101 -71 103 -46 109 -45 82 19 -12 28 -15 67 -13 164 l3
126 45 -119 46 -119 54 -18 c85 -26 86 -26 127 55 l38 72 3 -181 2 -181 98
-46 c90 -43 97 -45 100 -26 2 11 -2 27 -9 35 -9 11 -11 90 -8 326 l4 311 -105
48 c-58 26 -109 48 -115 48 -5 1 -19 -20 -29 -47 -11 -26 -35 -81 -54 -122
l-35 -75 -42 169 c-24 92 -47 171 -52 176 -4 4 -65 34 -135 68 l-128 61 0 -63z"/>
<path d="M4375 1240 c-274 -115 -285 -120 -285 -143 0 -10 9 -30 20 -44 19
-24 20 -41 20 -244 0 -139 -4 -219 -10 -219 -6 0 -10 -32 -10 -75 l0 -74 93
43 c281 131 371 181 427 236 85 82 119 163 99 235 -10 35 -69 95 -94 95 -19 0
-19 -4 10 54 18 35 25 66 25 103 0 47 -4 59 -29 84 -16 16 -40 29 -53 29 -13
-1 -108 -37 -213 -80z m89 -135 c9 -23 -44 -76 -101 -102 -30 -12 -56 -23 -58
-23 -3 0 -5 20 -5 44 0 43 0 43 58 69 65 30 97 34 106 12z m64 -207 c41 -41
-23 -117 -139 -166 l-74 -31 -9 50 c-11 61 -3 71 94 124 68 36 108 43 128 23z"/>
</g>
</svg>
