<?xml version="1.0" standalone="no"?>
<!DOCTYPE svg PUBLIC "-//W3C//DTD SVG 20010904//EN"
 "http://www.w3.org/TR/2001/REC-SVG-20010904/DTD/svg10.dtd">
<svg version="1.0" xmlns="http://www.w3.org/2000/svg"
 width="875.000000pt" height="875.000000pt" viewBox="0 0 875.000000 875.000000"
 preserveAspectRatio="xMidYMid meet">
<metadata>
Created by potrace 1.15, written by Peter Selinger 2001-2017
</metadata>
<g transform="translate(0.000000,875.000000) scale(0.100000,-0.100000)"
fill="#000000" stroke="none">
<path d="M1328 6874 c-61 -54 -232 -239 -249 -270 -10 -19 -6 -30 30 -82 61
-91 143 -184 190 -216 41 -28 43 -29 75 -14 71 34 286 268 286 311 0 35 -203
277 -257 305 -20 11 -28 7 -75 -34z"/>
<path d="M2294 6797 c-172 -177 -185 -213 -110 -313 24 -33 75 -89 114 -126
87 -84 108 -87 184 -25 51 42 238 259 238 277 0 5 -8 17 -18 27 -10 10 -41 48
-70 84 -58 74 -186 199 -205 199 -6 0 -66 -55 -133 -123z"/>
<path d="M6333 6877 c-103 -76 -243 -246 -243 -294 0 -42 63 -133 148 -215 84
-82 107 -89 165 -55 54 32 200 185 227 238 29 56 25 80 -24 147 -51 69 -171
199 -197 212 -13 8 -31 0 -76 -33z"/>
<path d="M7412 6900 c-60 -37 -261 -251 -273 -291 -17 -54 8 -96 127 -216 116
-117 133 -123 200 -75 96 70 224 237 224 293 0 33 -61 126 -132 200 -29 31
-61 68 -71 82 -21 32 -32 33 -75 7z"/>
<path d="M155 5980 c-20 -44 -24 -115 -6 -133 11 -11 152 -65 261 -99 77 -25
86 -30 95 -66 4 -15 11 -459 15 -987 4 -643 10 -978 18 -1015 6 -30 18 -97 27
-149 33 -195 144 -404 283 -532 58 -53 221 -169 239 -169 3 0 27 -13 52 -28
57 -35 224 -86 351 -108 147 -24 420 -29 576 -10 373 45 653 206 857 491 64
90 105 179 160 345 55 168 54 155 68 1011 6 392 14 670 20 690 6 19 14 124 19
234 10 252 15 266 96 279 23 3 70 19 105 35 35 15 86 36 112 46 26 9 61 28 77
42 34 28 56 89 46 127 l-6 26 -224 0 c-122 0 -358 3 -522 7 l-300 6 -22 -53
c-12 -29 -22 -70 -22 -91 0 -44 5 -47 108 -84 37 -13 96 -33 130 -46 101 -36
96 -16 103 -434 3 -198 12 -440 19 -537 9 -138 9 -215 0 -350 -6 -95 -15 -281
-20 -413 -5 -132 -13 -279 -19 -328 -12 -89 -58 -220 -107 -304 -97 -166 -287
-305 -514 -378 -75 -24 -107 -28 -275 -34 l-190 -7 -143 48 c-220 74 -300 122
-421 254 -84 92 -125 157 -168 266 l-36 93 -9 355 c-5 195 -7 659 -6 1031 2
548 6 679 16 692 8 9 42 32 75 51 139 79 210 156 205 221 l-3 30 -110 6 c-60
4 -308 7 -551 8 l-441 1 -18 -40z"/>
<path d="M5159 6014 c-20 -6 -29 -33 -29 -86 0 -74 24 -98 135 -131 92 -28
220 -78 235 -92 12 -13 15 -146 22 -892 8 -905 18 -1214 43 -1318 22 -93 86
-243 134 -315 58 -85 225 -256 276 -282 22 -11 47 -26 55 -34 37 -32 164 -89
275 -124 97 -31 159 -42 320 -61 213 -24 260 -23 522 17 164 24 382 113 511
208 111 82 306 296 330 361 6 17 26 66 46 110 87 200 110 388 120 995 11 627
26 1151 37 1230 5 41 15 83 22 93 11 17 71 41 317 130 43 16 70 60 77 130 l5
54 -182 6 c-101 4 -337 7 -524 7 l-341 0 -19 -64 c-10 -35 -16 -72 -14 -82 4
-23 60 -61 110 -75 77 -20 205 -89 218 -117 41 -87 37 -1735 -5 -1977 -62
-361 -254 -575 -625 -701 -84 -28 -89 -29 -300 -28 -207 1 -218 2 -300 28
-187 61 -324 147 -450 282 -67 72 -110 152 -160 294 -33 95 -41 392 -38 1331
3 895 -11 792 121 861 43 23 91 53 106 68 30 30 88 157 76 168 -7 8 -1100 13
-1126 6z"/>
<path d="M4380 5531 c-55 -6 -55 -6 -69 -51 -8 -25 -26 -74 -41 -110 -16 -36
-34 -83 -40 -105 -7 -22 -16 -45 -21 -50 -4 -6 -24 -51 -42 -100 -19 -50 -58
-144 -87 -210 -29 -66 -68 -160 -87 -210 -19 -49 -52 -130 -75 -180 -58 -129
-93 -211 -118 -280 -12 -33 -42 -98 -66 -144 -47 -89 -53 -120 -28 -145 20
-20 31 -20 42 0 12 22 304 72 328 56 34 -22 33 -45 -6 -122 -21 -41 -63 -136
-95 -210 -32 -74 -87 -198 -122 -275 -36 -77 -73 -162 -83 -190 -10 -27 -49
-115 -88 -195 -38 -80 -73 -156 -77 -170 -5 -14 -18 -41 -31 -60 -15 -21 -24
-49 -24 -72 0 -34 3 -38 24 -38 28 0 52 20 61 53 4 12 18 33 30 47 13 14 30
43 38 65 8 22 76 130 151 240 75 110 163 238 194 284 31 46 69 98 83 115 14
17 32 42 39 56 15 29 295 436 373 542 99 135 117 181 80 195 -9 4 -46 -4 -82
-17 -108 -39 -291 -38 -291 1 0 23 43 117 83 182 24 40 66 113 92 162 50 94
215 388 246 440 10 17 33 57 50 90 27 51 144 258 205 363 17 28 17 34 4 42
-16 10 -455 11 -550 1z"/>
</g>
</svg>
